<?xml version="1.0" encoding="utf-8"?>
<!-- Svg Vector Icons : http://www.onlinewebfonts.com/icon -->
<!DOCTYPE svg PUBLIC "-//W3C//DTD SVG 1.1//EN" "http://www.w3.org/Graphics/SVG/1.1/DTD/svg11.dtd">
<svg version="1.1" xmlns="http://www.w3.org/2000/svg" xmlns:xlink="http://www.w3.org/1999/xlink" x="0px" y="0px" viewBox="0 0 1000 1000" enable-background="new 0 0 1000 1000" xml:space="preserve">
<metadata> Svg Vector Icons : http://www.onlinewebfonts.com/icon </metadata>
<g><g transform="translate(0.000000,511.000000) scale(0.100000,-0.100000)"><path d="M4598.4,4930.6c-619.1-269.7-766.2-1091.2-282-1575.4c686.6-692.7,1814.4-73.5,1636.7,895C5842.7,4826.4,5150.1,5175.8,4598.4,4930.6z"/><path d="M4598.4,1007.4C3979.3,737.7,3832.1-83.7,4316.4-568c686.6-692.7,1814.4-73.5,1636.7,895C5842.7,903.2,5150.1,1252.6,4598.4,1007.4z"/><path d="M4598.4-2915.8c-619.1-269.7-766.2-1091.1-282-1575.4c398.4-398.4,962.4-398.4,1360.9,0C6437.4-3731,5585.3-2486.7,4598.4-2915.8z"/></g></g>
</svg>